<svg width="583" height="153" viewBox="0 0 583 153" fill="none" xmlns="http://www.w3.org/2000/svg">
<path fill-rule="evenodd" clip-rule="evenodd" d="M0 24.5C7.27774 19.05 13 16.2584 21.5 12C30 7.74157 43.2374 -1.40454 64.6132 0.999949C86.4748 3.40444 108.924 20.5 129.712 29.5C150.5 38.5 171 47 194.325 57.5392C217.651 68.0784 237.563 67.5616 258.939 62.7527C280.8 57.9437 302.176 48.3257 324.038 38.7078C345.413 29.0898 367.275 19.4719 388.651 14.6629C410.026 9.8539 431.888 9.85391 453.264 19.4719C475.125 29.0898 496.501 48.3257 518.363 50.7302C539.739 53.1347 561.6 38.7078 572.288 31.4943L582.976 24.2808V81.9886V152.52C572.288 152.52 539.739 152.52 518.363 152.52C496.501 152.52 475.125 152.52 453.264 152.52C431.888 152.52 410.026 152.52 388.651 152.52C367.275 152.52 345.413 152.52 324.038 152.52C302.176 152.52 280.8 152.52 258.939 152.52C237.563 152.52 215.701 152.52 194.325 152.52C172.95 152.52 151.088 152.52 129.712 152.52C107.851 152.52 86.4748 152.52 64.6132 152.52C43.2374 152.52 21.3758 152.52 10.6879 152.52H0L0 24.5Z" fill="#A6D3F4"/>
</svg>
