<svg width="259" height="259" viewBox="0 0 259 259" fill="none" xmlns="http://www.w3.org/2000/svg">
<path d="M71.3493 196.397C71.3493 196.397 69.1349 219.805 64.7068 219.805C60.2788 219.805 56.4818 196.395 56.4818 196.395L71.3493 196.397Z" stroke="#AC1482" stroke-width="1.832" stroke-miterlimit="10"/>
<path d="M216.864 196.397C216.864 196.397 219.079 219.806 223.507 219.806C227.935 219.806 231.732 196.397 231.732 196.397H216.864Z" stroke="#AC1482" stroke-width="1.832" stroke-miterlimit="10"/>
<path d="M210.826 148.947H79.1676C57.4626 148.947 39.7133 165.049 39.7133 184.725V191.431C39.7133 196.461 44.2027 200.541 49.7729 200.541H239.862C245.429 200.541 249.921 196.461 249.921 191.431V184.408C249.921 164.922 232.332 148.947 210.826 148.947Z" fill="#AC1482"/>
<path d="M235.813 121.71C235.813 109.278 220.818 99.1245 202.471 99.1245H90.1078C71.6023 99.1245 56.4499 109.373 56.4499 121.9V126.867C56.4499 139.394 71.6023 149.643 90.1078 149.643H202.471C220.818 149.643 235.813 139.489 235.813 127.057V126.171V121.71Z" fill="#AC1482"/>
<path d="M152.015 89.7608C139.425 86.8505 130.568 82.4224 133.699 68.8828C136.831 55.3431 132.245 39.4949 151.129 33.3894C170.046 27.2848 177.288 35.6341 190.229 61.3536C195.764 72.362 214.238 73.5957 218.699 78.0246C223.128 82.4535 232.554 107.791 201.965 110.291C171.375 112.79 152.015 89.7608 152.015 89.7608Z" fill="#FFEB7D"/>
<path d="M161.569 55.0582C162.011 54.3943 167.199 51.4521 167.832 54.9641C168.465 58.4762 160.556 60.8158 159.924 60.5628" fill="#FFC3A9"/>
<path d="M161.569 55.0582C162.011 54.3943 167.199 51.4521 167.832 54.9641C168.465 58.4762 160.556 60.8158 159.924 60.5628" stroke="#E89589" stroke-width="1.099" stroke-linecap="round" stroke-linejoin="round"/>
<path d="M181.909 169.066C180.897 166.883 178.144 166.345 176.088 165.526C172.64 164.134 169.92 165.181 166.693 166.634C164.89 167.425 161.916 167.835 160.995 169.797C160.811 170.205 160.739 170.655 160.788 171.1C160.836 171.545 161.004 171.969 161.272 172.328C161.54 172.687 161.899 172.967 162.313 173.139C162.726 173.311 163.178 173.37 163.622 173.308C163.794 173.533 164.041 173.69 164.317 173.751C166.5 174.289 168.967 175.112 170.612 176.724C172.07 178.311 173.028 180.293 173.364 182.422C173.807 184.637 174.914 190.678 178.552 188.369C180.134 187.389 180.64 185.143 181.056 183.466C181.603 181.233 181.963 178.958 182.131 176.665C182.226 175.336 182.194 174.039 182.289 172.711C182.468 171.483 182.337 170.23 181.909 169.066Z" fill="#621CD1"/>
<path d="M129.049 232.744C128.195 229.739 126.708 224.519 122.438 226.829C117.218 229.678 119.18 230.277 118.167 235.813C117.775 237.336 117.19 238.803 116.427 240.178C115.028 242.978 113.465 245.693 111.746 248.308C110.892 249.636 109.626 251.282 110.164 252.958C110.955 255.394 114.023 254.761 115.795 254.002C118.199 252.958 119.907 250.997 121.773 249.288C124.051 247.201 126.582 245.49 128.29 242.867C130.378 239.704 130.061 236.192 129.049 232.744Z" fill="#621CD1"/>
<path d="M115.637 230.878C108.677 217.592 96.973 188.488 107.412 171.407C92.2273 173.306 80.6181 163.498 87.8623 148.947C92.5122 140.09 131.137 131.549 131.137 131.549L193.297 143.411C193.297 143.411 197.096 159.861 181.751 167.93C169.604 174.318 151.066 177.42 146.958 178.052C142.851 178.684 135.57 181.532 134.937 193.236C134.779 196.274 134.937 218.227 135.887 228.029C132.276 236.572 119.623 233.377 115.637 230.878Z" fill="#FFEB7D"/>
<path d="M129.871 232.143C129.777 231.669 129.65 231.036 129.46 230.277" stroke="#F9C126" stroke-width="1.099" stroke-linecap="round" stroke-linejoin="round"/>
<path d="M128.574 226.703C125.035 213.037 117.123 182.447 134.3 173.305C154.546 162.549 179.539 164.448 184.281 150.212C185.437 147.032 186.285 143.748 186.812 140.406" stroke="#F9C126" stroke-width="1.099" stroke-linecap="round" stroke-linejoin="round" stroke-dasharray="4.3 4.3"/>
<path d="M186.875 138.54C186.717 136.894 185.863 137.245 185.863 137.245" stroke="#F9C126" stroke-width="1.099" stroke-linecap="round" stroke-linejoin="round"/>
<path d="M106.147 172.04C106.147 172.04 114.593 159.07 126.961 154.169" stroke="#F9C126" stroke-width="1.099" stroke-miterlimit="10"/>
<path d="M100.8 155.179C100.8 155.179 114.751 148.505 127.879 150.782" stroke="#F9C126" stroke-width="1.099" stroke-miterlimit="10"/>
<path d="M112.631 125.696C112.631 118.737 122.754 102.604 134.142 90.2667C145.53 77.9296 160.082 71.9191 175.898 83.6233C191.714 95.3275 202.787 109.88 202.471 125.063C202.155 140.247 197.093 147.524 173.368 148.156C161.031 148.156 159.924 146.543 159.924 146.543L119.275 136.452L112.631 125.696Z" fill="#FF859B"/>
<path d="M161.632 120.349L162.454 121.74L163.277 123.132H160.05L160.873 121.74L161.632 120.349ZM161.632 119.399C161.465 119.398 161.301 119.442 161.157 119.525C161.012 119.608 160.892 119.728 160.81 119.873L159.987 121.265L159.164 122.657C159.086 122.803 159.045 122.966 159.045 123.132C159.045 123.298 159.086 123.461 159.164 123.607C159.247 123.752 159.367 123.872 159.511 123.955C159.656 124.039 159.82 124.082 159.987 124.082H163.213C163.38 124.082 163.544 124.039 163.689 123.955C163.833 123.872 163.953 123.752 164.036 123.607C164.114 123.461 164.155 123.298 164.155 123.132C164.155 122.966 164.114 122.803 164.036 122.657L163.213 121.265L162.391 119.873C162.322 119.731 162.213 119.611 162.079 119.527C161.945 119.444 161.79 119.399 161.632 119.399Z" fill="#FF5C76"/>
<path d="M158.088 100.105L156.793 98.9346L157.964 97.6396C158.008 97.5943 158.042 97.5406 158.065 97.4819C158.088 97.4231 158.098 97.3603 158.096 97.2973C158.094 97.2343 158.08 97.1723 158.053 97.1151C158.027 97.0579 157.989 97.0065 157.943 96.9641C157.896 96.9217 157.841 96.8891 157.782 96.8682C157.722 96.8473 157.659 96.8386 157.596 96.8426C157.534 96.8466 157.472 96.8632 157.416 96.8914C157.359 96.9196 157.309 96.9588 157.268 97.0067L156.098 98.3017L154.803 97.1311C154.757 97.0872 154.704 97.0529 154.645 97.0301C154.586 97.0074 154.523 96.9967 154.46 96.9987C154.397 97.0007 154.335 97.0154 154.278 97.0418C154.221 97.0682 154.17 97.1058 154.127 97.1524C154.085 97.1991 154.052 97.2538 154.031 97.3132C154.01 97.3727 154.002 97.4358 154.006 97.4987C154.01 97.5616 154.026 97.6231 154.054 97.6795C154.083 97.7358 154.122 97.786 154.17 97.8269L155.465 98.9976L154.294 100.293C154.21 100.385 154.166 100.507 154.172 100.632C154.178 100.756 154.234 100.873 154.326 100.957C154.418 101.041 154.54 101.085 154.665 101.079C154.79 101.073 154.907 101.018 154.991 100.925L156.161 99.6304L157.456 100.801C157.548 100.885 157.67 100.929 157.794 100.923C157.919 100.917 158.036 100.861 158.119 100.769C158.203 100.677 158.247 100.555 158.241 100.431C158.235 100.306 158.18 100.189 158.088 100.105H158.088Z" fill="#FF5C76"/>
<path d="M151.224 89.3179C151.474 89.3177 151.719 89.3918 151.927 89.5308C152.136 89.6697 152.298 89.8673 152.394 90.0986C152.49 90.3298 152.515 90.5843 152.466 90.8299C152.418 91.0755 152.297 91.3011 152.12 91.4782C151.943 91.6553 151.718 91.7759 151.472 91.8248C151.227 91.8737 150.972 91.8487 150.741 91.7529C150.509 91.6571 150.312 91.4949 150.173 91.2868C150.034 91.0786 149.959 90.8339 149.959 90.5835C149.96 90.2483 150.094 89.927 150.331 89.6899C150.568 89.4528 150.889 89.319 151.224 89.3179ZM151.224 88.3682C150.786 88.3682 150.358 88.4981 149.994 88.7414C149.63 88.9847 149.346 89.3306 149.178 89.7352C149.011 90.1399 148.967 90.5851 149.052 91.0147C149.138 91.4442 149.349 91.8388 149.658 92.1485C149.968 92.4582 150.362 92.6691 150.792 92.7546C151.222 92.84 151.667 92.7962 152.071 92.6285C152.476 92.4609 152.822 92.1771 153.065 91.8129C153.309 91.4488 153.438 91.0206 153.438 90.5827C153.44 90.2913 153.384 90.0026 153.274 89.7331C153.163 89.4636 153 89.2187 152.794 89.0127C152.588 88.8067 152.343 88.6437 152.074 88.533C151.804 88.4224 151.515 88.3664 151.224 88.3682Z" fill="#FF5C76"/>
<path d="M147.428 109.152L146.89 107.507L148.536 106.97C148.653 106.928 148.749 106.843 148.804 106.732C148.86 106.621 148.87 106.493 148.833 106.374C148.797 106.256 148.715 106.156 148.607 106.096C148.498 106.036 148.371 106.02 148.251 106.052L146.606 106.59L146.068 104.949C146.031 104.828 145.946 104.726 145.833 104.667C145.721 104.607 145.589 104.595 145.467 104.633C145.346 104.67 145.244 104.755 145.184 104.867C145.125 104.98 145.113 105.112 145.151 105.233L145.688 106.879L144.044 107.417C143.982 107.435 143.925 107.464 143.876 107.504C143.826 107.544 143.785 107.594 143.754 107.65C143.724 107.706 143.705 107.768 143.699 107.831C143.693 107.895 143.699 107.959 143.718 108.02C143.737 108.081 143.768 108.138 143.809 108.186C143.85 108.235 143.9 108.276 143.957 108.305C144.014 108.334 144.076 108.352 144.14 108.357C144.203 108.361 144.267 108.354 144.328 108.334L145.973 107.796L146.511 109.441C146.553 109.56 146.639 109.659 146.751 109.718C146.863 109.776 146.993 109.791 147.115 109.757C147.179 109.744 147.239 109.716 147.291 109.676C147.342 109.637 147.385 109.586 147.415 109.528C147.444 109.471 147.461 109.407 147.463 109.342C147.466 109.277 147.454 109.212 147.428 109.152Z" fill="#FF5C76"/>
<path d="M158.152 107.602L159.386 108.677L160.62 109.753L159.066 110.291L157.516 110.829L157.832 109.247L158.149 107.602H158.152ZM158.149 106.652C158.041 106.658 157.934 106.679 157.832 106.716C157.67 106.768 157.526 106.863 157.415 106.991C157.303 107.119 157.229 107.275 157.199 107.443L156.883 109.024L156.567 110.606C156.536 110.768 156.549 110.936 156.605 111.092C156.66 111.248 156.756 111.386 156.883 111.492C157.061 111.639 157.285 111.718 157.516 111.714C157.624 111.708 157.73 111.686 157.832 111.651L159.386 111.113L160.94 110.575C161.099 110.522 161.241 110.429 161.352 110.303C161.462 110.178 161.538 110.025 161.57 109.861C161.602 109.696 161.59 109.527 161.535 109.369C161.48 109.211 161.384 109.07 161.257 108.961L160.022 107.886L158.789 106.81C158.589 106.72 158.375 106.667 158.157 106.652H158.149Z" fill="#FF5C76"/>
<path d="M168.939 104.786C168.836 104.813 168.729 104.823 168.623 104.818C168.454 104.823 168.286 104.793 168.128 104.732C167.971 104.67 167.828 104.577 167.707 104.46C167.586 104.342 167.489 104.201 167.424 104.045C167.358 103.889 167.324 103.722 167.324 103.553C167.324 103.384 167.358 103.217 167.424 103.061C167.489 102.905 167.586 102.764 167.707 102.646C167.828 102.528 167.971 102.436 168.128 102.374C168.286 102.313 168.454 102.283 168.623 102.288C168.718 102.288 168.844 102.319 168.939 102.319V101.339C168.844 101.339 168.718 101.307 168.623 101.307C168.035 101.307 167.472 101.54 167.057 101.956C166.642 102.371 166.408 102.934 166.408 103.521C166.408 104.109 166.642 104.672 167.057 105.087C167.472 105.503 168.035 105.736 168.623 105.736C168.729 105.741 168.836 105.73 168.939 105.704V104.786Z" fill="#FF5C76"/>
<path d="M149.961 118.547C149.967 118.439 149.988 118.333 150.024 118.231C150.08 118.075 150.166 117.932 150.278 117.809C150.389 117.687 150.524 117.588 150.673 117.517C150.823 117.447 150.985 117.406 151.151 117.399C151.316 117.391 151.481 117.416 151.637 117.472C151.793 117.528 151.936 117.614 152.059 117.725C152.181 117.837 152.28 117.971 152.351 118.121C152.421 118.271 152.462 118.433 152.47 118.598C152.477 118.764 152.453 118.929 152.396 119.085C152.356 119.186 152.303 119.282 152.238 119.37L153.155 119.686C153.211 119.597 153.254 119.502 153.282 119.402C153.382 119.127 153.427 118.836 153.414 118.545C153.401 118.253 153.331 117.967 153.208 117.703C153.084 117.438 152.91 117.201 152.695 117.004C152.48 116.807 152.228 116.654 151.954 116.554C151.679 116.455 151.388 116.41 151.097 116.423C150.805 116.435 150.519 116.506 150.255 116.629C149.99 116.752 149.753 116.927 149.556 117.142C149.359 117.357 149.206 117.609 149.106 117.883C149.075 117.978 149.043 118.073 149.011 118.199L149.961 118.547Z" fill="#FF5C76"/>
<path d="M138.254 98.3017C138.26 98.1938 138.281 98.0874 138.318 97.9857C138.374 97.83 138.46 97.6868 138.572 97.5643C138.683 97.4418 138.818 97.3425 138.967 97.272C139.117 97.2015 139.279 97.1612 139.445 97.1534C139.61 97.1455 139.775 97.1704 139.931 97.2264C140.087 97.2825 140.23 97.3687 140.353 97.4801C140.475 97.5915 140.574 97.726 140.645 97.8758C140.715 98.0255 140.756 98.1878 140.764 98.3531C140.771 98.5185 140.747 98.6838 140.691 98.8396C140.65 98.9408 140.597 99.0365 140.533 99.1245L141.449 99.4405C141.504 99.3517 141.547 99.2559 141.576 99.1556C141.778 98.6018 141.751 97.9908 141.501 97.4569C141.252 96.923 140.801 96.51 140.247 96.3087C139.693 96.1075 139.082 96.1344 138.549 96.3837C138.015 96.6329 137.602 97.0841 137.4 97.6378C137.368 97.7319 137.337 97.8269 137.305 97.9538L138.254 98.3017Z" fill="#FF5C76"/>
<path d="M145.53 86.0597L144.993 84.415L146.637 83.8772C146.7 83.8605 146.758 83.8314 146.81 83.7915C146.861 83.7516 146.903 83.7018 146.935 83.6451C146.966 83.5884 146.985 83.5259 146.992 83.4614C146.999 83.3969 146.992 83.3317 146.973 83.2698C146.954 83.2079 146.922 83.1505 146.88 83.1011C146.838 83.0517 146.787 83.0113 146.729 82.9823C146.671 82.9533 146.608 82.9363 146.543 82.9324C146.478 82.9285 146.413 82.9377 146.352 82.9594L144.708 83.4973L144.17 81.8526C144.152 81.7913 144.122 81.7342 144.082 81.6845C144.042 81.6348 143.993 81.5936 143.936 81.5634C143.88 81.5331 143.819 81.5143 143.755 81.5081C143.692 81.5019 143.627 81.5084 143.567 81.5273C143.506 81.5462 143.449 81.5771 143.4 81.6181C143.351 81.6591 143.311 81.7094 143.282 81.7662C143.253 81.8229 143.235 81.8849 143.23 81.9485C143.225 82.0121 143.233 82.0761 143.253 82.1367L143.791 83.7822L142.145 84.32C142.024 84.3578 141.922 84.4424 141.863 84.555C141.804 84.6677 141.791 84.7993 141.829 84.9209C141.867 85.0425 141.952 85.1441 142.064 85.2034C142.177 85.2626 142.309 85.2747 142.43 85.2369L144.075 84.6991L144.613 86.3446C144.655 86.4637 144.741 86.5625 144.853 86.621C144.965 86.6796 145.095 86.6937 145.217 86.6605C145.28 86.6467 145.339 86.6191 145.391 86.5798C145.442 86.5406 145.484 86.4905 145.514 86.4332C145.544 86.376 145.561 86.3128 145.564 86.2483C145.566 86.1837 145.555 86.1193 145.53 86.0597Z" fill="#FF5C76"/>
<path d="M168.939 114.625C169.189 114.625 169.434 114.699 169.642 114.838C169.851 114.977 170.013 115.174 170.109 115.406C170.205 115.637 170.23 115.892 170.181 116.137C170.132 116.383 170.012 116.608 169.835 116.785C169.658 116.962 169.432 117.083 169.186 117.132C168.941 117.181 168.686 117.155 168.455 117.06C168.224 116.964 168.026 116.801 167.887 116.593C167.748 116.385 167.674 116.14 167.674 115.89C167.675 115.554 167.809 115.233 168.046 114.996C168.283 114.76 168.604 114.626 168.939 114.625ZM168.939 113.675C168.501 113.675 168.073 113.805 167.708 114.048C167.344 114.292 167.06 114.638 166.893 115.042C166.725 115.447 166.681 115.892 166.767 116.322C166.852 116.751 167.063 117.146 167.373 117.456C167.683 117.765 168.078 117.976 168.507 118.062C168.937 118.147 169.382 118.103 169.787 117.935C170.191 117.767 170.537 117.483 170.78 117.119C171.024 116.755 171.153 116.327 171.153 115.889C171.155 115.597 171.099 115.309 170.988 115.039C170.878 114.77 170.715 114.525 170.509 114.319C170.303 114.113 170.058 113.95 169.788 113.84C169.519 113.729 169.23 113.673 168.939 113.675Z" fill="#FF5C76"/>
<path d="M141.734 117.788C141.985 117.788 142.229 117.862 142.437 118.001C142.646 118.14 142.808 118.338 142.904 118.569C142.999 118.801 143.024 119.055 142.976 119.301C142.927 119.546 142.806 119.772 142.629 119.949C142.452 120.126 142.227 120.246 141.981 120.295C141.736 120.344 141.481 120.319 141.25 120.223C141.019 120.127 140.821 119.965 140.682 119.757C140.543 119.549 140.469 119.304 140.469 119.054C140.47 118.718 140.603 118.397 140.84 118.16C141.078 117.923 141.399 117.789 141.734 117.788ZM141.734 116.838C141.296 116.838 140.868 116.968 140.504 117.212C140.14 117.455 139.856 117.801 139.688 118.205C139.521 118.61 139.477 119.055 139.562 119.485C139.648 119.914 139.859 120.309 140.168 120.619C140.478 120.928 140.873 121.139 141.302 121.225C141.732 121.31 142.177 121.266 142.582 121.099C142.986 120.931 143.332 120.647 143.576 120.283C143.819 119.919 143.949 119.491 143.949 119.053C143.951 118.761 143.895 118.473 143.784 118.203C143.673 117.934 143.51 117.689 143.304 117.483C143.098 117.277 142.853 117.114 142.584 117.003C142.314 116.893 142.026 116.837 141.734 116.838Z" fill="#FF5C76"/>
<path d="M154.356 129.714C154.25 129.719 154.143 129.709 154.039 129.682C153.877 129.641 153.725 129.568 153.591 129.467C153.458 129.367 153.345 129.241 153.26 129.097C153.175 128.953 153.119 128.794 153.095 128.628C153.071 128.463 153.081 128.294 153.122 128.132C153.164 127.97 153.237 127.818 153.337 127.684C153.438 127.55 153.563 127.438 153.707 127.352C153.851 127.267 154.01 127.211 154.176 127.188C154.342 127.164 154.51 127.173 154.672 127.215C154.773 127.244 154.869 127.286 154.957 127.342L155.21 126.392L154.925 126.297C154.645 126.224 154.353 126.208 154.066 126.248C153.779 126.288 153.503 126.384 153.253 126.531C153.003 126.678 152.785 126.873 152.611 127.104C152.436 127.335 152.309 127.599 152.236 127.879C152.164 128.16 152.147 128.452 152.187 128.738C152.227 129.025 152.324 129.302 152.47 129.551C152.617 129.801 152.812 130.019 153.043 130.194C153.275 130.368 153.538 130.495 153.818 130.568C153.913 130.6 154.039 130.6 154.134 130.631L154.356 129.714Z" fill="#FF5C76"/>
<path d="M144.139 127.946L143.411 129.401L142.683 130.856L141.797 129.496L140.912 128.136L142.525 128.041L144.139 127.946ZM144.929 127.44C144.835 127.301 144.708 127.188 144.558 127.11C144.409 127.033 144.243 126.994 144.075 126.997L142.462 127.091L140.849 127.186C140.685 127.199 140.527 127.252 140.389 127.34C140.251 127.428 140.137 127.55 140.058 127.693C139.982 127.842 139.948 128.009 139.959 128.177C139.97 128.344 140.026 128.505 140.121 128.643L141.007 130.002L141.892 131.363C141.986 131.502 142.114 131.616 142.263 131.693C142.412 131.77 142.578 131.809 142.746 131.806C142.909 131.794 143.067 131.741 143.205 131.652C143.343 131.564 143.457 131.443 143.537 131.3L144.265 129.844L144.993 128.39C145.069 128.24 145.103 128.073 145.092 127.906C145.081 127.739 145.025 127.578 144.929 127.44Z" fill="#FF5C76"/>
<path d="M171.28 129.049L171.438 127.31L173.178 127.468C173.24 127.472 173.303 127.464 173.362 127.444C173.421 127.424 173.476 127.392 173.523 127.351C173.57 127.31 173.608 127.26 173.636 127.204C173.664 127.148 173.68 127.087 173.684 127.024C173.688 126.962 173.68 126.899 173.66 126.84C173.64 126.781 173.608 126.726 173.567 126.679C173.526 126.632 173.476 126.594 173.42 126.566C173.364 126.539 173.303 126.522 173.241 126.518L171.501 126.36L171.659 124.62C171.668 124.494 171.626 124.37 171.542 124.275C171.459 124.18 171.342 124.122 171.216 124.113C171.09 124.105 170.966 124.147 170.871 124.23C170.776 124.313 170.718 124.431 170.709 124.557L170.552 126.296L168.812 126.138C168.75 126.134 168.687 126.142 168.628 126.162C168.569 126.182 168.514 126.214 168.467 126.255C168.42 126.296 168.381 126.346 168.353 126.402C168.326 126.458 168.309 126.519 168.305 126.581C168.301 126.643 168.309 126.706 168.329 126.765C168.349 126.824 168.38 126.879 168.422 126.926C168.463 126.973 168.513 127.012 168.569 127.039C168.625 127.067 168.686 127.084 168.748 127.088L170.488 127.247L170.33 128.986C170.322 129.049 170.328 129.114 170.346 129.174C170.365 129.235 170.396 129.291 170.438 129.339C170.48 129.387 170.531 129.426 170.589 129.452C170.647 129.478 170.71 129.492 170.773 129.492C170.897 129.492 171.017 129.447 171.11 129.366C171.203 129.284 171.263 129.172 171.28 129.049Z" fill="#FF5C76"/>
<path d="M175.266 120.761C175.272 120.654 175.293 120.547 175.329 120.445C175.385 120.29 175.471 120.146 175.583 120.024C175.694 119.901 175.829 119.802 175.978 119.732C176.128 119.661 176.29 119.621 176.456 119.613C176.621 119.605 176.787 119.63 176.942 119.686C177.098 119.742 177.241 119.828 177.364 119.94C177.486 120.051 177.586 120.186 177.656 120.335C177.727 120.485 177.767 120.647 177.775 120.813C177.783 120.978 177.758 121.143 177.702 121.299C177.661 121.4 177.608 121.496 177.544 121.584L178.46 121.9C178.516 121.812 178.558 121.716 178.587 121.616C178.687 121.342 178.732 121.051 178.719 120.759C178.706 120.468 178.636 120.182 178.513 119.917C178.389 119.653 178.215 119.415 178 119.218C177.785 119.021 177.533 118.868 177.259 118.769C176.985 118.669 176.693 118.624 176.402 118.637C176.11 118.65 175.824 118.72 175.56 118.843C175.296 118.967 175.058 119.141 174.861 119.356C174.664 119.571 174.511 119.823 174.411 120.097C174.38 120.192 174.348 120.287 174.316 120.413L175.266 120.761Z" fill="#FF5C76"/>
<path d="M186.243 139.362L185.579 140.849L184.914 142.336L183.964 141.041L183.015 139.746L184.627 139.556L186.241 139.366L186.243 139.362ZM187.032 138.797C186.936 138.663 186.807 138.557 186.657 138.491C186.506 138.424 186.341 138.399 186.178 138.417L184.564 138.607L182.951 138.797C182.784 138.812 182.624 138.873 182.49 138.974C182.356 139.074 182.253 139.21 182.192 139.366C182.128 139.52 182.104 139.687 182.12 139.853C182.137 140.019 182.194 140.178 182.287 140.316L183.236 141.611L184.186 142.906C184.282 143.04 184.411 143.146 184.562 143.212C184.712 143.279 184.877 143.305 185.041 143.286C185.206 143.266 185.364 143.203 185.497 143.103C185.63 143.003 185.735 142.869 185.8 142.716L186.464 141.229L187.128 139.743C187.192 139.589 187.216 139.422 187.2 139.256C187.183 139.09 187.126 138.931 187.033 138.793L187.032 138.797Z" fill="#FF5C76"/>
<path d="M192.158 134.554L192.348 132.814L194.088 133.003C194.148 133.012 194.21 133.008 194.269 132.992C194.328 132.976 194.383 132.948 194.431 132.909C194.478 132.87 194.517 132.822 194.545 132.768C194.573 132.713 194.59 132.654 194.594 132.592C194.605 132.471 194.569 132.35 194.492 132.255C194.415 132.161 194.304 132.1 194.183 132.087L192.443 131.897L192.633 130.157C192.639 130.097 192.634 130.036 192.616 129.978C192.599 129.92 192.57 129.866 192.532 129.819C192.494 129.772 192.447 129.733 192.394 129.704C192.34 129.675 192.282 129.657 192.222 129.651C192.161 129.644 192.1 129.65 192.042 129.667C191.984 129.685 191.93 129.713 191.883 129.751C191.836 129.79 191.797 129.837 191.768 129.89C191.74 129.943 191.721 130.002 191.715 130.062L191.525 131.802L189.786 131.612C189.725 131.603 189.663 131.607 189.604 131.623C189.545 131.64 189.49 131.668 189.443 131.707C189.395 131.746 189.356 131.794 189.328 131.848C189.3 131.903 189.284 131.962 189.28 132.024C189.268 132.145 189.305 132.266 189.382 132.361C189.459 132.455 189.57 132.516 189.691 132.529L191.43 132.719L191.24 134.459C191.232 134.52 191.236 134.581 191.252 134.64C191.269 134.699 191.297 134.754 191.336 134.802C191.374 134.849 191.423 134.888 191.477 134.916C191.531 134.944 191.591 134.961 191.652 134.965C191.713 134.977 191.776 134.976 191.837 134.961C191.897 134.946 191.954 134.918 192.002 134.879C192.051 134.84 192.09 134.79 192.117 134.734C192.144 134.678 192.158 134.616 192.158 134.554Z" fill="#FF5C76"/>
<path d="M201.079 114.024C201.226 114.227 201.31 114.47 201.319 114.721C201.328 114.971 201.263 115.219 201.131 115.433C201 115.647 200.808 115.817 200.579 115.921C200.351 116.026 200.097 116.061 199.849 116.021C199.601 115.981 199.371 115.868 199.187 115.698C199.003 115.527 198.874 115.305 198.816 115.061C198.758 114.817 198.774 114.561 198.861 114.325C198.949 114.09 199.104 113.886 199.307 113.739C199.582 113.549 199.92 113.472 200.251 113.525C200.581 113.578 200.878 113.757 201.079 114.024ZM201.838 113.486C201.578 113.133 201.22 112.864 200.807 112.715C200.395 112.566 199.948 112.542 199.522 112.646C199.096 112.751 198.711 112.98 198.415 113.303C198.12 113.627 197.926 114.031 197.86 114.464C197.794 114.898 197.858 115.341 198.043 115.738C198.229 116.135 198.528 116.469 198.903 116.696C199.278 116.923 199.712 117.034 200.15 117.014C200.588 116.995 201.01 116.846 201.364 116.586C201.837 116.237 202.152 115.715 202.241 115.134C202.33 114.553 202.185 113.96 201.838 113.486Z" fill="#FF5C76"/>
<path d="M186.906 121.298L187.919 119.907L189.311 120.918C189.36 120.959 189.418 120.989 189.479 121.006C189.54 121.024 189.605 121.029 189.668 121.021C189.732 121.013 189.793 120.993 189.848 120.961C189.903 120.929 189.952 120.886 189.99 120.835C190.028 120.784 190.056 120.726 190.071 120.664C190.087 120.602 190.089 120.537 190.079 120.474C190.069 120.411 190.046 120.351 190.012 120.297C189.978 120.243 189.933 120.196 189.881 120.16L188.489 119.148L189.502 117.759C189.539 117.709 189.566 117.652 189.582 117.592C189.597 117.531 189.6 117.469 189.592 117.407C189.583 117.345 189.562 117.286 189.53 117.232C189.499 117.179 189.457 117.132 189.407 117.095C189.357 117.057 189.3 117.03 189.24 117.015C189.18 116.999 189.117 116.996 189.055 117.005C188.993 117.014 188.934 117.034 188.881 117.066C188.827 117.098 188.78 117.14 188.743 117.19L187.73 118.581L186.338 117.569C186.289 117.531 186.232 117.504 186.171 117.489C186.111 117.473 186.048 117.47 185.986 117.479C185.925 117.487 185.865 117.508 185.812 117.54C185.758 117.572 185.711 117.614 185.674 117.664C185.636 117.714 185.609 117.77 185.594 117.831C185.578 117.891 185.575 117.954 185.583 118.016C185.592 118.077 185.613 118.137 185.645 118.191C185.677 118.244 185.719 118.291 185.769 118.328L187.161 119.34L186.148 120.733C186.077 120.835 186.047 120.96 186.065 121.084C186.082 121.207 186.146 121.319 186.243 121.397C186.293 121.435 186.35 121.463 186.41 121.479C186.471 121.494 186.534 121.498 186.596 121.489C186.658 121.479 186.717 121.458 186.771 121.425C186.824 121.392 186.87 121.349 186.906 121.298Z" fill="#FF5C76"/>
<path d="M197.251 124.241L197.125 125.854L196.998 127.468L195.669 126.551L194.341 125.633L195.796 124.937L197.251 124.241ZM198.011 123.704C197.953 123.615 197.877 123.539 197.789 123.482C197.65 123.389 197.491 123.332 197.326 123.316C197.16 123.299 196.993 123.324 196.839 123.387L195.384 124.083L193.929 124.779C193.778 124.852 193.648 124.964 193.554 125.103C193.459 125.241 193.403 125.403 193.391 125.57C193.373 125.683 193.381 125.799 193.414 125.908C193.447 126.018 193.504 126.118 193.581 126.203C193.638 126.292 193.713 126.367 193.802 126.424L195.131 127.342L196.459 128.259C196.598 128.351 196.757 128.408 196.922 128.425C197.088 128.442 197.255 128.417 197.409 128.353C197.561 128.281 197.69 128.17 197.785 128.031C197.879 127.892 197.935 127.73 197.947 127.563L198.074 125.949L198.2 124.336C198.218 124.223 198.21 124.108 198.177 123.998C198.144 123.889 198.088 123.788 198.011 123.704Z" fill="#FF5C76"/>
<path d="M173.052 146.131C172.963 146.074 172.887 145.999 172.83 145.91C172.728 145.776 172.654 145.622 172.612 145.458C172.57 145.294 172.561 145.124 172.586 144.956C172.611 144.789 172.669 144.629 172.757 144.484C172.845 144.34 172.961 144.214 173.098 144.115C173.235 144.016 173.39 143.946 173.555 143.907C173.72 143.869 173.89 143.864 174.057 143.893C174.224 143.922 174.383 143.984 174.525 144.075C174.668 144.166 174.79 144.284 174.886 144.424C174.951 144.512 175.004 144.607 175.044 144.708L175.835 144.139C175.772 144.044 175.74 143.949 175.677 143.854C175.329 143.38 174.806 143.063 174.225 142.974C173.644 142.885 173.051 143.031 172.576 143.379C172.102 143.728 171.786 144.25 171.697 144.831C171.608 145.413 171.754 146.006 172.102 146.48C172.167 146.572 172.242 146.656 172.324 146.733L173.052 146.131Z" fill="#FF5C76"/>
<path d="M180.802 128.891C180.891 128.836 180.986 128.794 181.087 128.764C181.41 128.676 181.754 128.715 182.049 128.875C182.344 129.034 182.565 129.301 182.668 129.619C182.764 129.942 182.728 130.29 182.567 130.586C182.407 130.883 182.136 131.104 181.814 131.201C181.71 131.226 181.604 131.237 181.498 131.232L181.783 132.15C181.89 132.144 181.997 132.122 182.099 132.087C182.656 131.915 183.124 131.532 183.401 131.019C183.678 130.506 183.743 129.905 183.581 129.345C183.419 128.784 183.044 128.31 182.536 128.024C182.028 127.738 181.428 127.663 180.865 127.816C180.764 127.844 180.669 127.887 180.58 127.943L180.802 128.891Z" fill="#FF5C76"/>
<path d="M195.194 141.861C195.341 142.064 195.425 142.307 195.434 142.557C195.443 142.808 195.378 143.056 195.246 143.269C195.115 143.483 194.923 143.653 194.695 143.757C194.467 143.862 194.213 143.896 193.965 143.856C193.718 143.816 193.487 143.704 193.303 143.533C193.12 143.363 192.991 143.141 192.933 142.897C192.875 142.653 192.891 142.397 192.978 142.162C193.065 141.927 193.22 141.723 193.424 141.576C193.699 141.386 194.036 141.31 194.366 141.363C194.696 141.416 194.993 141.594 195.194 141.861ZM195.954 141.323C195.695 140.97 195.336 140.701 194.924 140.551C194.511 140.402 194.064 140.377 193.638 140.482C193.212 140.587 192.826 140.815 192.53 141.139C192.234 141.462 192.041 141.867 191.974 142.3C191.908 142.734 191.971 143.177 192.157 143.575C192.343 143.972 192.642 144.306 193.017 144.533C193.393 144.76 193.827 144.871 194.265 144.852C194.703 144.832 195.126 144.683 195.479 144.424C195.717 144.253 195.918 144.037 196.07 143.788C196.223 143.539 196.325 143.262 196.369 142.973C196.413 142.685 196.399 142.39 196.328 142.107C196.257 141.823 196.13 141.557 195.954 141.323Z" fill="#FF5C76"/>
<path d="M190.671 108.994L190.007 110.481L189.343 111.967L188.393 110.672L187.443 109.377L189.057 109.188L190.671 108.998L190.671 108.994ZM191.461 108.429C191.366 108.295 191.236 108.189 191.086 108.122C190.936 108.055 190.771 108.03 190.608 108.049L188.994 108.239L187.38 108.429C187.213 108.443 187.054 108.504 186.92 108.605C186.786 108.706 186.682 108.842 186.622 108.998C186.558 109.152 186.534 109.319 186.55 109.485C186.567 109.651 186.624 109.81 186.717 109.948L187.666 111.243L188.616 112.538C188.711 112.672 188.841 112.777 188.991 112.844C189.141 112.911 189.307 112.936 189.47 112.917C189.635 112.898 189.793 112.835 189.926 112.735C190.06 112.635 190.165 112.502 190.229 112.348L190.893 110.861L191.558 109.374C191.621 109.22 191.646 109.053 191.629 108.887C191.613 108.722 191.556 108.563 191.463 108.424L191.461 108.429Z" fill="#FF5C76"/>
<path d="M174.001 132.34C174.251 132.34 174.496 132.414 174.704 132.553C174.912 132.692 175.074 132.89 175.17 133.121C175.266 133.352 175.291 133.607 175.242 133.852C175.193 134.098 175.072 134.323 174.895 134.5C174.718 134.677 174.493 134.798 174.247 134.846C174.002 134.895 173.747 134.87 173.516 134.774C173.285 134.679 173.087 134.516 172.948 134.308C172.809 134.1 172.735 133.855 172.735 133.605C172.736 133.27 172.869 132.948 173.107 132.711C173.344 132.474 173.665 132.34 174.001 132.34ZM174.001 131.39C173.563 131.39 173.134 131.52 172.77 131.763C172.406 132.006 172.122 132.352 171.955 132.757C171.787 133.162 171.743 133.607 171.829 134.036C171.914 134.466 172.125 134.86 172.435 135.17C172.744 135.48 173.139 135.691 173.569 135.776C173.998 135.862 174.443 135.818 174.848 135.65C175.253 135.483 175.598 135.199 175.842 134.835C176.085 134.47 176.215 134.042 176.215 133.604C176.217 133.313 176.161 133.024 176.05 132.755C175.94 132.485 175.776 132.24 175.57 132.034C175.364 131.828 175.12 131.665 174.85 131.555C174.581 131.444 174.292 131.388 174.001 131.39Z" fill="#FF5C76"/>
<path d="M165.744 137.116L166.566 138.508L167.389 139.9H164.162L164.985 138.508L165.744 137.116ZM165.744 136.167C165.578 136.166 165.413 136.209 165.269 136.293C165.124 136.376 165.005 136.497 164.922 136.641L164.099 138.033L163.277 139.426C163.199 139.572 163.158 139.735 163.158 139.901C163.158 140.066 163.199 140.229 163.277 140.375C163.36 140.52 163.48 140.64 163.624 140.723C163.768 140.807 163.932 140.85 164.099 140.849H167.326C167.493 140.85 167.657 140.807 167.801 140.723C167.945 140.64 168.065 140.52 168.148 140.375C168.226 140.229 168.267 140.066 168.267 139.901C168.267 139.735 168.226 139.572 168.148 139.426L167.326 138.033L166.503 136.641C166.434 136.499 166.326 136.379 166.192 136.295C166.058 136.211 165.903 136.167 165.744 136.167Z" fill="#FF5C76"/>
<path d="M188.489 99.8203C188.41 99.8907 188.325 99.9543 188.235 100.01C187.941 100.17 187.597 100.206 187.276 100.111C186.956 100.016 186.686 99.7976 186.527 99.5039C186.368 99.2103 186.331 98.8653 186.426 98.545C186.521 98.2247 186.74 97.9552 187.033 97.7958C187.122 97.7404 187.218 97.6976 187.318 97.6689L186.843 96.8151C186.743 96.8435 186.647 96.8859 186.559 96.9411C186.043 97.2222 185.659 97.6967 185.493 98.2603C185.327 98.8239 185.392 99.4304 185.673 99.9464C185.954 100.462 186.428 100.846 186.992 101.012C187.556 101.178 188.162 101.113 188.678 100.832C188.76 100.775 188.845 100.723 188.932 100.674L188.489 99.8203Z" fill="#FF5C76"/>
<path d="M167.927 86.1857L168.939 84.794L170.336 85.8067C170.437 85.8773 170.561 85.9058 170.683 85.8863C170.804 85.8667 170.914 85.8007 170.988 85.7021C171.062 85.6034 171.094 85.4799 171.079 85.3577C171.063 85.2355 171.001 85.124 170.905 85.047L169.513 84.0351L170.525 82.6435C170.565 82.5939 170.595 82.5367 170.613 82.4753C170.63 82.4139 170.635 82.3496 170.627 82.2862C170.62 82.2228 170.599 82.1616 170.567 82.1063C170.535 82.051 170.492 82.0027 170.441 81.9644C170.39 81.926 170.332 81.8984 170.27 81.8831C170.208 81.8678 170.143 81.8651 170.08 81.8753C170.017 81.8855 169.957 81.9084 169.903 81.9424C169.849 81.9765 169.802 82.0211 169.766 82.0737L168.753 83.4653L167.361 82.4535C167.312 82.4162 167.255 82.389 167.195 82.3735C167.134 82.3581 167.072 82.3547 167.01 82.3635C166.885 82.3813 166.773 82.4479 166.698 82.5485C166.622 82.6491 166.59 82.7756 166.608 82.9001C166.625 83.0246 166.692 83.1369 166.793 83.2124L168.184 84.2251L167.167 85.6168C167.096 85.7188 167.066 85.8442 167.083 85.9675C167.101 86.0908 167.165 86.2028 167.262 86.2807C167.312 86.3193 167.368 86.3476 167.429 86.3638C167.489 86.38 167.553 86.3838 167.615 86.3749C167.677 86.366 167.737 86.3447 167.79 86.3122C167.844 86.2797 167.89 86.2366 167.927 86.1857Z" fill="#FF5C76"/>
<path d="M178.429 101.971C178.68 101.971 178.924 102.045 179.133 102.184C179.341 102.323 179.503 102.521 179.599 102.752C179.695 102.983 179.72 103.238 179.671 103.483C179.622 103.729 179.501 103.954 179.324 104.131C179.147 104.308 178.922 104.429 178.676 104.478C178.431 104.527 178.176 104.502 177.945 104.406C177.714 104.31 177.516 104.148 177.377 103.94C177.238 103.732 177.164 103.487 177.164 103.237C177.165 102.901 177.298 102.58 177.535 102.343C177.773 102.105 178.094 101.972 178.429 101.971ZM178.429 101.021C177.991 101.021 177.563 101.151 177.199 101.394C176.835 101.638 176.551 101.984 176.384 102.388C176.216 102.793 176.172 103.238 176.258 103.668C176.343 104.097 176.554 104.492 176.864 104.802C177.173 105.111 177.568 105.322 177.997 105.408C178.427 105.493 178.872 105.449 179.277 105.282C179.681 105.114 180.027 104.83 180.271 104.466C180.514 104.102 180.644 103.674 180.644 103.236C180.646 102.944 180.59 102.656 180.479 102.386C180.368 102.117 180.205 101.872 179.999 101.666C179.793 101.46 179.549 101.297 179.279 101.186C179.01 101.075 178.721 101.019 178.429 101.021Z" fill="#FF5C76"/>
<path d="M163.593 93.4299L162.137 92.7341L160.683 92.0382L162.043 91.1205L163.403 90.2037L163.53 91.8172L163.593 93.4299ZM164.131 94.2208C164.271 94.1298 164.384 94.002 164.456 93.8514C164.528 93.7008 164.558 93.5332 164.542 93.3669L164.416 91.7533L164.289 90.1406C164.277 89.973 164.221 89.8115 164.127 89.6726C164.032 89.5337 163.903 89.4223 163.751 89.3498C163.602 89.2734 163.435 89.239 163.267 89.2501C163.1 89.2612 162.939 89.3174 162.801 89.4129L161.443 90.3297L160.084 91.2474C159.943 91.3385 159.831 91.4663 159.758 91.6168C159.686 91.7673 159.656 91.9349 159.672 92.1013C159.684 92.2687 159.74 92.4299 159.835 92.5687C159.929 92.7075 160.058 92.8191 160.21 92.8921L161.665 93.5879L163.12 94.2846C163.282 94.3543 163.458 94.3848 163.634 94.3737C163.81 94.3626 163.981 94.3102 164.133 94.2208H164.131Z" fill="#FF5C76"/>
<path d="M174.566 93.5568C174.674 93.5624 174.781 93.5836 174.883 93.6199C175.057 93.6763 175.216 93.7699 175.35 93.894C175.484 94.0182 175.59 94.17 175.659 94.3389C175.729 94.5079 175.761 94.6899 175.753 94.8725C175.746 95.0551 175.698 95.2338 175.615 95.3963C175.531 95.5588 175.413 95.7012 175.269 95.8137C175.125 95.9261 174.959 96.006 174.781 96.0476C174.603 96.0893 174.418 96.0918 174.239 96.0549C174.06 96.0181 173.891 95.9428 173.744 95.8343L173.399 96.752C173.487 96.8067 173.583 96.8491 173.683 96.8781C174.237 97.0795 174.848 97.0526 175.382 96.8034C175.916 96.5543 176.329 96.1032 176.53 95.5494C176.731 94.9957 176.705 94.3846 176.455 93.8506C176.206 93.3166 175.755 92.9035 175.201 92.7021C175.106 92.6711 175.011 92.6391 174.885 92.608L174.566 93.5568Z" fill="#FF5C76"/>
<path d="M129.586 101.687C129.733 101.89 129.817 102.133 129.826 102.384C129.836 102.634 129.77 102.882 129.639 103.096C129.507 103.31 129.315 103.48 129.087 103.584C128.858 103.689 128.604 103.723 128.356 103.684C128.109 103.644 127.878 103.531 127.694 103.36C127.51 103.19 127.381 102.968 127.323 102.724C127.265 102.48 127.281 102.224 127.368 101.988C127.456 101.753 127.611 101.549 127.815 101.402C127.95 101.304 128.103 101.234 128.265 101.195C128.427 101.157 128.595 101.15 128.76 101.177C128.924 101.203 129.082 101.262 129.224 101.35C129.366 101.437 129.489 101.552 129.586 101.687ZM130.345 101.149C130.086 100.796 129.727 100.527 129.315 100.378C128.903 100.228 128.456 100.204 128.03 100.309C127.604 100.413 127.219 100.642 126.923 100.965C126.627 101.289 126.434 101.693 126.367 102.126C126.301 102.56 126.364 103.003 126.55 103.4C126.735 103.797 127.035 104.131 127.41 104.358C127.785 104.585 128.218 104.696 128.656 104.677C129.094 104.657 129.517 104.509 129.87 104.249C130.343 103.9 130.659 103.378 130.748 102.797C130.837 102.216 130.692 101.623 130.345 101.149Z" fill="#FF5C76"/>
<path d="M127.752 119.399L128.764 118.006L130.156 119.019C130.206 119.059 130.263 119.089 130.324 119.107C130.386 119.125 130.45 119.13 130.513 119.122C130.577 119.114 130.638 119.094 130.693 119.062C130.749 119.03 130.797 118.987 130.835 118.936C130.874 118.885 130.901 118.826 130.917 118.764C130.932 118.702 130.934 118.638 130.924 118.575C130.914 118.512 130.891 118.451 130.857 118.397C130.823 118.343 130.778 118.297 130.726 118.26L129.334 117.248L130.346 115.856C130.386 115.806 130.416 115.749 130.434 115.688C130.452 115.626 130.457 115.562 130.449 115.499C130.441 115.435 130.421 115.374 130.389 115.319C130.357 115.263 130.314 115.215 130.263 115.177C130.212 115.138 130.153 115.111 130.091 115.095C130.029 115.08 129.965 115.078 129.902 115.088C129.839 115.098 129.778 115.121 129.724 115.155C129.67 115.189 129.624 115.234 129.587 115.286L128.575 116.679L127.183 115.666C127.133 115.626 127.076 115.596 127.015 115.578C126.953 115.561 126.889 115.555 126.826 115.563C126.762 115.571 126.701 115.592 126.646 115.624C126.59 115.656 126.542 115.698 126.504 115.749C126.465 115.8 126.438 115.859 126.422 115.921C126.407 115.983 126.404 116.047 126.415 116.11C126.425 116.173 126.448 116.234 126.482 116.288C126.516 116.342 126.561 116.388 126.613 116.425L128.006 117.438L126.993 118.829C126.921 118.931 126.891 119.057 126.909 119.18C126.927 119.304 126.991 119.416 127.088 119.494C127.137 119.532 127.194 119.56 127.254 119.576C127.315 119.593 127.378 119.596 127.44 119.587C127.502 119.579 127.561 119.557 127.615 119.525C127.669 119.493 127.715 119.45 127.752 119.399Z" fill="#FF5C76"/>
<path d="M122.659 111.209L121.995 112.695L121.33 114.182L120.381 112.887L119.431 111.592L121.045 111.402L122.657 111.213L122.659 111.209ZM123.448 110.643C123.353 110.509 123.223 110.404 123.073 110.337C122.923 110.27 122.757 110.245 122.594 110.263L120.981 110.453L119.368 110.643C119.201 110.658 119.041 110.719 118.907 110.82C118.773 110.92 118.669 111.057 118.608 111.213C118.545 111.367 118.52 111.534 118.537 111.7C118.554 111.865 118.611 112.024 118.703 112.163L119.653 113.458L120.602 114.753C120.698 114.887 120.827 114.993 120.977 115.059C121.128 115.126 121.293 115.151 121.456 115.132C121.622 115.113 121.779 115.05 121.913 114.95C122.046 114.85 122.15 114.717 122.215 114.563L122.88 113.076L123.544 111.589C123.607 111.435 123.632 111.268 123.615 111.103C123.599 110.937 123.542 110.778 123.449 110.64L123.448 110.643Z" fill="#FF5C76"/>
<path d="M133.667 110.354C133.564 110.32 133.475 110.253 133.414 110.164C133.29 110.056 133.187 109.924 133.114 109.777C133.04 109.629 132.996 109.469 132.984 109.304C132.972 109.139 132.993 108.974 133.045 108.818C133.097 108.661 133.179 108.516 133.287 108.391C133.395 108.267 133.527 108.165 133.675 108.091C133.822 108.017 133.983 107.973 134.147 107.961C134.312 107.949 134.477 107.97 134.634 108.022C134.79 108.074 134.935 108.157 135.06 108.265C135.15 108.333 135.225 108.419 135.281 108.518L135.914 107.79C135.857 107.701 135.781 107.626 135.692 107.569C135.474 107.376 135.22 107.227 134.944 107.132C134.669 107.037 134.378 106.998 134.087 107.015C133.796 107.033 133.512 107.108 133.25 107.235C132.988 107.363 132.754 107.541 132.561 107.759C132.367 107.977 132.219 108.231 132.124 108.506C132.029 108.781 131.989 109.073 132.007 109.364C132.025 109.654 132.099 109.939 132.227 110.201C132.354 110.463 132.532 110.697 132.75 110.89C132.845 110.953 132.908 111.017 133.003 111.08L133.667 110.354Z" fill="#FF5C76"/>
<path d="M119.116 125.222C119.013 125.188 118.924 125.121 118.863 125.032C118.611 124.814 118.456 124.505 118.432 124.172C118.409 123.84 118.518 123.512 118.736 123.26C118.954 123.008 119.263 122.853 119.596 122.829C119.928 122.806 120.257 122.915 120.508 123.133C120.598 123.202 120.673 123.288 120.729 123.386L121.362 122.659C121.305 122.57 121.229 122.494 121.14 122.437C120.698 122.056 120.124 121.865 119.543 121.904C118.961 121.944 118.418 122.211 118.031 122.647C117.644 123.084 117.445 123.655 117.477 124.238C117.508 124.82 117.768 125.367 118.199 125.759C118.294 125.822 118.357 125.885 118.452 125.948L119.116 125.222Z" fill="#FF5C76"/>
<path d="M139.678 105.293C139.362 106.558 136.199 118.263 131.77 124.273" stroke="#FF5C76" stroke-width="1.099" stroke-linecap="round" stroke-linejoin="round"/>
<path d="M125.759 121.109C128.304 122.171 130.507 123.914 132.125 126.146C133.744 128.379 134.715 131.014 134.933 133.763" stroke="#FF5C76" stroke-width="1.099" stroke-linecap="round" stroke-linejoin="round"/>
<path d="M158.974 67.6491C158.879 67.839 160.493 76.601 161.031 79.2583C161.148 79.78 161.16 80.3196 161.068 80.8461C160.976 81.3727 160.78 81.8758 160.493 82.3266C160.181 82.9074 159.687 83.3702 159.088 83.6444C158.488 83.9186 157.815 83.9891 157.172 83.8452C156.56 83.6466 156.02 83.275 155.615 82.7752C155.211 82.2755 154.961 81.6692 154.894 81.0299L153.249 70.1795" fill="#FFC3A9"/>
<path d="M158.974 67.6491C158.879 67.839 160.493 76.601 161.031 79.2583C161.148 79.78 161.16 80.3196 161.068 80.8461C160.976 81.3727 160.78 81.8758 160.493 82.3266C160.181 82.9074 159.687 83.3702 159.088 83.6444C158.488 83.9186 157.815 83.9891 157.172 83.8452C156.56 83.6466 156.02 83.275 155.615 82.7752C155.211 82.2755 154.961 81.6692 154.894 81.0299L153.249 70.1795" stroke="#E89589" stroke-width="1.099" stroke-linecap="round" stroke-linejoin="round"/>
<path d="M138.729 50.5663C138.729 50.5663 139.995 77.5817 155.4 72.8403C165.933 69.2342 162.58 49.21 159.291 42.3456" fill="#FFC3A9"/>
<path d="M138.729 50.5663C138.729 50.5663 139.995 77.5817 155.4 72.8403C165.933 69.2342 162.58 49.21 159.291 42.3456" stroke="#E89589" stroke-width="1.099" stroke-miterlimit="10"/>
<path d="M154.995 58.4915C155.588 58.2806 155.854 57.5091 155.59 56.7684C155.327 56.0277 154.633 55.5982 154.04 55.8092C153.448 56.0201 153.181 56.7916 153.445 57.5323C153.709 58.273 154.403 58.7025 154.995 58.4915Z" fill="#621CD1"/>
<path d="M149.168 61.642C149.238 62.5389 149.206 63.4407 149.073 64.3304C148.915 65.3112 150.75 64.1724 150.75 64.1724" stroke="#E89589" stroke-width="1.099" stroke-linecap="round" stroke-linejoin="round"/>
<path d="M155.495 51.1957C155.128 51.0248 154.724 50.9497 154.32 50.9774C153.916 51.005 153.526 51.1344 153.186 51.3537" stroke="#E89589" stroke-width="1.099" stroke-linecap="round" stroke-linejoin="round"/>
<path d="M145.056 54.3624C144.344 54.6317 143.713 55.0773 143.221 55.6574" stroke="#E89589" stroke-width="1.099" stroke-linecap="round" stroke-linejoin="round"/>
<path d="M155.178 66.0674C155.088 66.5075 154.851 66.9038 154.506 67.1913C154.161 67.4787 153.728 67.6402 153.279 67.6491" stroke="#E89589" stroke-width="1.099" stroke-linecap="round" stroke-linejoin="round"/>
<path d="M146.201 60.5156C146.794 60.3047 147.06 59.5332 146.797 58.7925C146.533 58.0518 145.839 57.6223 145.246 57.8332C144.654 58.0442 144.387 58.8156 144.651 59.5563C144.915 60.297 145.609 60.7265 146.201 60.5156Z" fill="#621CD1"/>
<path d="M152.047 41.8717H151.541C148.378 41.8717 150.275 42.1885 144.898 39.0227C139.52 35.8568 136.04 37.7579 132.245 39.6555C128.449 41.5531 128.764 49.1461 134.775 51.9925C140.785 54.8389 147.112 52.3094 149.642 49.1435C152.015 46.1693 154.103 45.1575 155.906 45.3155C155.906 45.3155 157.867 45.6608 158.496 46.6105C159.124 47.5602 158.496 48.5098 158.496 49.4595C158.496 56.0709 162.924 53.5716 162.924 53.5716L163.557 39.9697L152.047 41.8717Z" fill="#FFEB7D"/>
<path d="M137.368 158.152L98.6497 149.959C98.3421 149.891 98.0623 149.732 97.8469 149.502C97.6315 149.273 97.4906 148.983 97.4427 148.672C97.3948 148.36 97.4422 148.042 97.5785 147.758C97.7149 147.474 97.9339 147.238 98.2068 147.081L121.615 133.889C121.939 133.697 122.326 133.64 122.691 133.731L161.411 141.924C161.718 141.992 161.998 142.152 162.213 142.382C162.428 142.611 162.569 142.901 162.617 143.212C162.665 143.524 162.618 143.842 162.481 144.126C162.345 144.41 162.126 144.646 161.853 144.803L138.444 157.994C138.284 158.091 138.107 158.154 137.922 158.181C137.737 158.209 137.549 158.199 137.368 158.152Z" fill="#465CFF"/>
<path d="M125.788 128.701C120.726 129.239 118.669 133.098 119.619 135.503C120.536 137.938 125.281 138.192 126.326 138.761C127.337 139.331 128.761 142.842 129.299 142.367C129.868 141.861 129.236 138.666 128.761 137.59C131.038 139.299 131.924 142.779 132.778 141.766C133.632 140.754 132.209 137.242 131.26 135.345C132.778 136.484 132.968 137.812 133.981 139.204C134.961 140.564 135.214 141.133 135.783 140.343C136.353 139.584 134.993 135.282 133.759 133.636C135.815 134.554 136.891 139.362 137.745 138.603C138.599 137.844 137.619 134.87 136.669 132.972C135.719 131.075 133.253 129.524 129.299 128.764L125.788 128.701Z" fill="#FFC3A9" stroke="#E89589" stroke-width="1.099" stroke-linecap="round" stroke-linejoin="round"/>
<path d="M136.894 158.026L97.068 149.616C96.8006 149.555 96.553 149.427 96.3483 149.244C96.1436 149.062 95.9884 148.831 95.8973 148.572L86.8815 120.988C86.7963 120.728 86.7813 120.451 86.838 120.184C86.8946 119.917 87.021 119.669 87.2041 119.467C87.3873 119.264 87.6208 119.114 87.8809 119.031C88.141 118.948 88.4184 118.935 88.685 118.994L128.511 127.409C128.779 127.47 129.027 127.597 129.231 127.78C129.436 127.963 129.591 128.194 129.682 128.453L138.697 156.037C138.779 156.296 138.792 156.572 138.734 156.837C138.676 157.103 138.549 157.348 138.367 157.549C138.185 157.751 137.953 157.9 137.694 157.984C137.436 158.068 137.16 158.082 136.894 158.026Z" fill="#A4D2FC"/>
<path d="M173.21 105.293C173.21 105.293 181.751 121.742 179.536 126.487C177.322 131.232 160.556 129.336 157.709 131.865" stroke="#FF5C76" stroke-width="1.099" stroke-linecap="round" stroke-linejoin="round"/>
<path d="M155.621 131.391C155.115 131.296 151.92 128.48 151.382 127.943C150.844 127.405 150.338 128.986 152.711 131.897C149.8 131.106 145.593 133.225 144.518 135.06C143.474 136.894 142.398 139.808 143.189 140.596C143.98 141.383 145.309 136.642 147.428 135.847C146.099 137.429 144.518 141.668 145.056 142.459C145.593 143.249 145.846 142.712 146.89 141.415C147.935 140.086 148.219 138.789 149.8 137.714C148.757 139.548 147.175 142.997 147.966 144.04C148.757 145.084 149.8 141.668 152.205 140.086C151.667 141.13 150.876 144.325 151.414 144.835C151.952 145.344 153.533 141.924 154.577 141.386C155.621 140.849 160.398 140.849 161.442 138.476C162.485 136.136 160.62 132.182 155.621 131.391Z" fill="#FFC3A9" stroke="#E89589" stroke-width="1.099" stroke-linecap="round" stroke-linejoin="round"/>
</svg>
