<svg width="863" height="323" viewBox="0 0 863 323" fill="none" xmlns="http://www.w3.org/2000/svg">
<path fill-rule="evenodd" clip-rule="evenodd" d="M0 61C0 61 16.811 42 28.5 24.5C40.189 7 47 0 59.5 0C72 0 97.5 76.5712 171 88C244.5 99.4288 255.132 63.7489 287.473 78.5C319.095 93.2511 315.878 107.415 347.5 132C379.122 156.585 408.878 148.834 440.5 139C472.841 129.166 495.5 115 521.5 94C547.5 73 565.878 42.8341 597.5 33C629.122 23.1659 649.378 33.3318 681 53C713.341 72.6682 734.494 109.677 766.834 114.594C798.456 119.511 830.797 90.0091 846.608 75.258L862.419 60.5068V178.516V322.749C846.608 322.749 798.456 322.749 766.834 322.749C734.494 322.749 702.872 322.749 670.531 322.749C638.909 322.749 606.568 322.749 574.946 322.749C543.324 322.749 510.983 322.749 479.361 322.749C447.021 322.749 415.398 322.749 383.058 322.749C351.436 322.749 319.095 322.749 287.473 322.749C255.851 322.749 223.51 322.749 191.888 322.749C159.548 322.749 127.925 322.749 95.5848 322.749C63.9627 322.749 31.622 322.749 15.811 322.749H0L0 61Z" fill="#FFAAA5"/>
</svg>
