<svg width="607" height="239" viewBox="0 0 607 239" fill="none" xmlns="http://www.w3.org/2000/svg">
<path fill-rule="evenodd" clip-rule="evenodd" d="M-6.10352e-05 54.0001C-6.10352e-05 54.0001 28.5 25.5 41.5 6.50013C70 -20.4999 96.2762 46.5419 118.5 50C141.229 53.4581 152.771 44.6256 175.5 55C197.724 65.3744 195.276 98.2093 217.5 115.5C239.724 132.791 257 122 280 111.5C303 101 314.163 88.8281 336.892 74.9955C359.116 61.163 381.844 47.3304 404.068 40.4141C426.292 33.4979 449.021 33.4979 471.245 47.3304C493.973 61.163 516.197 88.8281 538.926 92.2862C561.15 95.7444 583.879 74.9956 594.99 64.6211L606.102 54.0002V137.242V238.681C594.99 238.681 561.15 238.681 538.926 238.681C516.197 238.681 493.973 238.681 471.245 238.681C449.021 238.681 426.292 238.681 404.068 238.681C381.844 238.681 359.116 238.681 336.892 238.681C314.163 238.681 291.939 238.681 269.21 238.681C246.987 238.681 224.258 238.681 202.034 238.681C179.81 238.681 157.081 238.681 134.858 238.681C112.129 238.681 89.9051 238.681 67.1763 238.681C44.9525 238.681 22.2237 238.681 11.1118 238.681H-6.10352e-05L-6.10352e-05 54.0001Z" fill="#F8DC88"/>
</svg>
